<?xml version="1.0" encoding="iso-8859-1"?>
<!-- Uploaded to: SVG Repo, www.svgrepo.com, Generator: SVG Repo Mixer Tools -->
<svg height="800px" width="800px" version="1.1" id="Layer_1" xmlns="http://www.w3.org/2000/svg" xmlns:xlink="http://www.w3.org/1999/xlink" 
	 viewBox="0 0 512 512" xml:space="preserve">
<polygon style="fill:#FFE777;" points="116.102,346.406 8.168,503.83 503.828,503.83 503.828,166.129 "/>
<g>
	<polygon style="fill:#FFF1B1;" points="194.046,334.979 8.168,503.83 8.168,166.129 194.046,237.47 	"/>
	<polygon style="fill:#FFF1B1;" points="471.147,195.816 471.147,474.145 318.528,334.402 	"/>
</g>
<polygon style="fill:#969696;" points="8.168,166.129 108.931,257.665 255.998,336.798 403.063,257.667 503.828,166.129 
	403.062,166.129 108.934,166.129 "/>
<polygon style="fill:#DCDCDC;" points="108.934,213.504 108.934,257.666 255.998,391.266 403.062,257.667 403.062,213.504 "/>
<polygon style="fill:#FFFFFF;" points="403.062,8.17 403.062,213.504 255.998,347.114 108.934,213.504 108.934,8.17 "/>
<path d="M503.83,157.959h-92.598V8.17c0-4.512-3.658-8.17-8.17-8.17H108.934c-4.512,0-8.17,3.658-8.17,8.17v149.788H8.17
	c-4.512,0-8.17,3.658-8.17,8.17V503.83c0,4.512,3.658,8.17,8.17,8.17h495.66c4.512,0,8.17-3.658,8.17-8.17V166.129
	C512,161.617,508.342,157.959,503.83,157.959z M117.104,16.34h277.787v237.707l-82.357,74.815c-0.025,0.022-0.049,0.045-0.074,0.068
	l-56.465,51.294l-56.439-51.27c-0.038-0.035-0.075-0.07-0.113-0.104l-82.339-74.799L117.104,16.34L117.104,16.34z M495.66,495.66
	H16.34V174.299h84.423v64.909l-51.126-46.444c-3.339-3.034-8.507-2.787-11.541,0.553s-2.787,8.507,0.553,11.541L181.89,334.98
	L38.655,465.099c-3.34,3.034-3.587,8.201-0.553,11.541c1.612,1.775,3.827,2.677,6.05,2.677c1.96,0,3.926-0.702,5.491-2.123
	l144.398-131.174l56.462,51.292c1.558,1.415,3.525,2.123,5.494,2.123c1.968,0,3.936-0.707,5.494-2.123l56.466-51.295
	l144.406,131.182c1.565,1.422,3.531,2.123,5.491,2.123c2.223,0,4.438-0.902,6.05-2.677c3.034-3.34,2.787-8.507-0.553-11.541
	L330.106,334.977l143.238-130.121c3.34-3.034,3.587-8.201,0.553-11.541c-3.034-3.34-8.201-3.587-11.541-0.553l-51.125,46.443V174.3
	h84.428V495.66z"/>
<path d="M174.296,81.702H337.7c4.512,0,8.17-3.658,8.17-8.17c0-4.512-3.658-8.17-8.17-8.17H174.296c-4.512,0-8.17,3.658-8.17,8.17
	C166.125,78.044,169.784,81.702,174.296,81.702z"/>
<path d="M174.296,125.277H337.7c4.512,0,8.17-3.658,8.17-8.17c0-4.512-3.658-8.17-8.17-8.17H174.296c-4.512,0-8.17,3.658-8.17,8.17
	C166.125,121.619,169.784,125.277,174.296,125.277z"/>
<path d="M174.296,168.851h81.702c4.512,0,8.17-3.658,8.17-8.17s-3.658-8.17-8.17-8.17h-81.702c-4.512,0-8.17,3.658-8.17,8.17
	S169.784,168.851,174.296,168.851z"/>
</svg>